<?xml version="1.0" encoding="utf-8"?>
<!-- Generator: $$$/GeneralStr/196=Adobe Illustrator 27.6.0, SVG Export Plug-In . SVG Version: 6.00 Build 0)  -->
<svg version="1.1" id="Ebene_1" xmlns="http://www.w3.org/2000/svg" xmlns:xlink="http://www.w3.org/1999/xlink" x="0px" y="0px"
	 viewBox="0 0 359 179" style="enable-background:new 0 0 359 179;" xml:space="preserve">
<style type="text/css">
	.st0{fill:#008AC4;}
	.st1{fill:#FFFFFF;}
</style>
<rect class="st0" width="359" height="179"/>
<g>
	<path class="st1" d="M236.8,84.9c-7.3,0-16.6,3.5-21.3,7.8V66.6l-21.2,7.6v63.6l21.2-8.3v-27.2c3.1-2.5,6.9-4,9.8-4
		c4.9,0,7.4,2.3,7.4,6.9v17.5l21.2-8.3v-10.3C253.8,90.7,248.6,84.9,236.8,84.9z"/>
	<path class="st1" d="M226.6,133h-3.1v5.2h-3v-12.5h3v5h3.1v-5h3v12.5h-3V133z"/>
	<path class="st1" d="M234.6,133.5c0-1.8,0.5-2.9,1.5-2.9c1,0,1.5,1,1.5,2.9c0,1.8-0.5,2.9-1.5,2.9
		C235.1,136.4,234.6,135.3,234.6,133.5z M231.6,133.5c0,2.8,1.5,4.8,4.5,4.8c2.9,0,4.5-2,4.5-4.8c0-2.8-1.6-4.8-4.5-4.8
		C233.2,128.7,231.6,130.7,231.6,133.5z"/>
	<path class="st1" d="M249,138c-0.8,0.2-1.7,0.4-2.6,0.4c-3.7,0-4.5-3-4.5-4.7c0-2.9,1.7-4.9,4.7-4.9c0.9,0,1.5,0.2,2.3,0.4
		l-0.1,2.1c-0.5-0.2-1.1-0.4-1.7-0.4c-2.2,0-2.2,2.4-2.2,2.7c0,2,1.2,2.6,2.3,2.6c0.6,0,1.2-0.2,1.7-0.4L249,138z"/>
	<path class="st1" d="M250.4,124.8h2.9v5.5h0c0.3-1,1.4-1.5,2.4-1.5c2.1,0,2.8,1.5,2.8,3.4v6.1h-2.9v-5.8c0-1.2-0.5-1.5-1.1-1.5
		c-0.9,0-1.3,0.8-1.3,2v5.2h-2.9V124.8z"/>
	<path class="st1" d="M266.3,131.2c-0.8-0.3-1.5-0.5-2.3-0.5c-0.8,0-1.1,0.4-1.1,0.7c0,0.6,0.4,0.8,2,1.4c1,0.4,2,1,2,2.7
		c0,2.1-1.6,2.9-3.5,2.9c-0.8,0-2.1-0.1-3.1-0.4l0.1-2.2c0.7,0.4,1.6,0.6,2.4,0.6c1.4,0,1.4-0.5,1.4-0.9c0-0.4-0.8-0.6-2-1.1
		c-1-0.4-2-1.2-2-2.9c0-1,0.7-2.8,3.6-2.8c1.2,0,2.2,0.2,2.6,0.4L266.3,131.2z"/>
	<path class="st1" d="M275.1,138c-0.8,0.2-1.7,0.4-2.6,0.4c-3.7,0-4.5-3-4.5-4.7c0-2.9,1.7-4.9,4.7-4.9c1,0,1.5,0.2,2.3,0.4
		l-0.1,2.1c-0.5-0.2-1.1-0.4-1.7-0.4c-2.2,0-2.2,2.4-2.2,2.7c0,2,1.2,2.6,2.3,2.6c0.6,0,1.1-0.2,1.7-0.4L275.1,138z"/>
	<path class="st1" d="M276.5,124.8h2.9v5.5h0c0.3-1,1.4-1.5,2.4-1.5c2.1,0,2.8,1.5,2.8,3.4v6.1h-2.9v-5.8c0-1.2-0.5-1.5-1.1-1.5
		c-0.9,0-1.3,0.8-1.3,2v5.2h-2.9V124.8z"/>
	<path class="st1" d="M294.8,136.2c0,0.9,0,1.5,0.1,2h-2.6c0-0.4-0.1-0.9-0.1-1.6h0c-0.4,1-1.2,1.7-2.7,1.7c-2.1,0-2.8-1.5-2.8-3.4
		v-6.1h2.9v5.7c0,1.2,0.5,1.5,1.1,1.5c0.9,0,1.3-0.8,1.3-2v-5.2h2.9L294.8,136.2L294.8,136.2z"/>
	<path class="st1" d="M296.9,124.8h2.9v13.4h-2.9V124.8z"/>
	<path class="st1" d="M304.4,132.7c0-0.5,0-2.3,1.5-2.3c1.2,0,1.5,1.1,1.5,2.3H304.4z M310,133.6c0-4.9-3.3-4.9-4.1-4.9
		c-2.7,0-4.2,2.3-4.2,4.8c0,2.9,1.5,4.8,4.8,4.8c1,0,2.1-0.2,3-0.5l-0.1-2.1c-0.7,0.4-1.7,0.7-2.7,0.7c-1.6,0-2.4-1-2.4-2.1h5.6
		L310,133.6L310,133.6z"/>
	<path class="st1" d="M194,141.4h1.9l2.5,7.7h0l2.6-7.7h1.9v9.7h-1.2v-8.4h0l-2.8,8.4h-0.9l-2.7-8.4h0v8.4H194V141.4z"/>
	<path class="st1" d="M208.7,148.6c0,1-0.7,1.8-1.7,1.8c-0.8,0-1.2-0.5-1.2-1.2c0-0.8,0.7-1.5,2.1-1.5c0.3,0,0.6,0,0.8,0V148.6z
		 M205.3,145.6c0.4-0.4,1.1-0.7,1.9-0.7c0.5,0,1,0.1,1.2,0.4c0.2,0.3,0.3,0.6,0.3,1.1v0.3H208c-2.5,0-3.4,1-3.4,2.4
		c0,1.4,0.9,2,2.1,2c1.1,0,1.7-0.5,2-1.1h0l0.1,0.9h1.1c0-0.3-0.1-0.7-0.1-1.1v-3.7c0-1-0.3-1.4-0.6-1.7c-0.2-0.2-0.9-0.7-1.9-0.7
		c-0.7,0-1.4,0.2-2.1,0.6L205.3,145.6z"/>
	<path class="st1" d="M212.4,147.6c0-1.8,0.5-2.7,1.6-2.7c1.1,0,1.6,0.9,1.6,2.7c0,1.8-0.5,2.7-1.6,2.7
		C212.9,150.3,212.4,149.4,212.4,147.6z M216.8,145.4c0-0.4,0-0.9,0.1-1.3h-1.2l0,1h0c-0.4-0.7-1-1.1-1.8-1.1
		c-1.6,0-2.6,1.2-2.6,3.7s1,3.7,2.5,3.7c0.8,0,1.4-0.4,1.9-1.2h0v1.1c0,1.2-0.6,2.1-2,2.1c-0.6,0-1.5-0.3-2-0.6l-0.1,1.2
		c0.5,0.2,1.5,0.4,2.1,0.4c1.6,0,3.1-0.8,3.1-2.8L216.8,145.4L216.8,145.4z"/>
	<path class="st1" d="M222.5,147.6c0,1.8-0.5,2.7-1.6,2.7c-1.1,0-1.6-0.9-1.6-2.7c0-1.8,0.5-2.7,1.6-2.7
		C222,144.9,222.5,145.8,222.5,147.6z M223.7,140.7h-1.2v4.3h0c-0.5-0.8-1-1.1-1.8-1.1c-1.5,0-2.5,1.2-2.5,3.7s1,3.7,2.5,3.7
		c1,0,1.6-0.6,1.9-1.1h0l0,1h1.2c0-0.4-0.1-0.9-0.1-1.3L223.7,140.7L223.7,140.7z"/>
	<path class="st1" d="M226.3,147.1c0-1.7,0.7-2.2,1.5-2.2c1,0,1.4,0.7,1.4,2.2H226.3z M230.4,148v-0.6c0-2.1-0.9-3.4-2.6-3.4
		c-1.8,0-2.8,1.4-2.8,3.7c0,2.2,1,3.7,2.9,3.7c0.7,0,1.5-0.2,2-0.4l-0.1-1.1c-0.4,0.3-1.1,0.6-1.7,0.6c-1.3,0-2-0.8-2-2.4L230.4,148
		L230.4,148z"/>
	<path class="st1" d="M232.9,147.6c0-1.8,0.5-2.7,1.6-2.7c1.1,0,1.6,0.9,1.6,2.7c0,1.8-0.5,2.7-1.6,2.7
		C233.4,150.3,232.9,149.4,232.9,147.6z M231.7,149.9c0,0.4,0,0.9-0.1,1.3h1.2l0-1h0c0.3,0.6,0.9,1.1,1.9,1.1c1.5,0,2.5-1.2,2.5-3.7
		s-1-3.7-2.5-3.7c-0.8,0-1.4,0.3-1.8,1.1h0v-4.3h-1.2L231.7,149.9L231.7,149.9z"/>
	<path class="st1" d="M243.9,149.6c0,0.5,0,1,0.1,1.5h-1.2l0-1.1h0c-0.4,0.8-1,1.2-1.8,1.2c-1.3,0-2.1-0.7-2.1-2.3v-4.9h1.2v4.6
		c0,1.1,0.4,1.6,1.2,1.6c0.9,0,1.5-0.6,1.5-1.9v-4.3h1.2V149.6L243.9,149.6z"/>
	<path class="st1" d="M245.6,145.6c0-0.5,0-1-0.1-1.5h1.2l0,1.1h0c0.4-0.9,1-1.2,2.1-1.2v1.2c-0.1,0-0.3,0-0.5,0
		c-0.9,0-1.6,0.8-1.6,2.3v3.8h-1.2L245.6,145.6L245.6,145.6z"/>
	<path class="st1" d="M250.8,147.6c0-1.8,0.5-2.7,1.6-2.7c1.1,0,1.6,0.9,1.6,2.7c0,1.8-0.5,2.7-1.6,2.7
		C251.3,150.3,250.8,149.4,250.8,147.6z M255.2,145.4c0-0.4,0-0.9,0.1-1.3h-1.2l0,1h0c-0.4-0.7-1-1.1-1.8-1.1
		c-1.6,0-2.6,1.2-2.6,3.7s1,3.7,2.5,3.7c0.8,0,1.4-0.4,1.9-1.2h0v1.1c0,1.2-0.6,2.1-2,2.1c-0.7,0-1.5-0.3-2-0.6l-0.1,1.2
		c0.5,0.2,1.5,0.4,2.1,0.4c1.6,0,3.1-0.8,3.1-2.8L255.2,145.4L255.2,145.4z"/>
	<path class="st1" d="M262.9,143.8c1.4,0,2.4,1.1,2.4,2.4c0,1.4-1.1,2.4-2.4,2.4s-2.4-1.1-2.4-2.4
		C260.5,144.9,261.6,143.8,262.9,143.8z"/>
	<path class="st1" d="M275.2,142.8c-0.5-0.3-1.1-0.5-1.7-0.5c-0.9,0-1.5,0.6-1.5,1.5c0,0.6,0.3,1,1.7,1.8c1.5,0.9,2.1,1.7,2.1,2.8
		c0,1.6-1,2.8-2.9,2.8c-0.8,0-1.5-0.2-2.1-0.4v-1.3c0.6,0.3,1.3,0.6,1.9,0.6c1.1,0,1.8-0.7,1.8-1.5c0-0.8-0.2-1.2-1.5-2
		c-1.8-1.1-2.2-1.7-2.2-2.9c0-1.6,1.2-2.4,2.8-2.4c0.7,0,1.4,0.1,1.8,0.3L275.2,142.8L275.2,142.8L275.2,142.8z"/>
	<path class="st1" d="M280.5,151.1c-0.3,0.1-0.7,0.2-1,0.2c-1.1,0-1.7-0.4-1.7-1.7V145h-1.2v-1h1.2v-1.4l1.2-0.4v1.8h1.5v1H279v4.2
		c0,0.8,0.2,1.1,0.8,1.1c0.3,0,0.5-0.1,0.7-0.2L280.5,151.1L280.5,151.1z"/>
	<path class="st1" d="M282.4,147.1c0-1.7,0.7-2.2,1.5-2.2c1,0,1.4,0.7,1.4,2.2H282.4z M286.6,148v-0.6c0-2.1-0.9-3.4-2.6-3.4
		c-1.8,0-2.8,1.4-2.8,3.7c0,2.2,1,3.7,2.9,3.7c0.7,0,1.5-0.2,2-0.4l-0.1-1.1c-0.4,0.3-1.1,0.6-1.7,0.6c-1.3,0-2-0.8-2-2.4L286.6,148
		L286.6,148z"/>
	<path class="st1" d="M287.9,145.6c0-0.5,0-1-0.1-1.5h1.2l0,1.1h0c0.4-0.8,1-1.2,1.8-1.2c1.3,0,2.1,0.7,2.1,2.3v4.9h-1.2v-4.6
		c0-1.1-0.4-1.6-1.2-1.6c-0.9,0-1.5,0.6-1.5,1.9v4.3h-1.2L287.9,145.6L287.9,145.6z"/>
	<path class="st1" d="M298.9,147.6c0,1.8-0.5,2.7-1.6,2.7s-1.6-0.9-1.6-2.7c0-1.8,0.5-2.7,1.6-2.7S298.9,145.8,298.9,147.6z
		 M300.1,140.7h-1.2v4.3h0c-0.5-0.8-1-1.1-1.8-1.1c-1.5,0-2.5,1.2-2.5,3.7s1,3.7,2.5,3.7c1,0,1.6-0.6,1.9-1.1h0l0,1h1.2
		c0-0.4-0.1-0.9-0.1-1.3L300.1,140.7L300.1,140.7z"/>
	<path class="st1" d="M305.5,148.6c0,1-0.7,1.8-1.7,1.8c-0.8,0-1.2-0.5-1.2-1.2c0-0.8,0.7-1.5,2.1-1.5c0.3,0,0.6,0,0.8,0V148.6z
		 M302.2,145.6c0.4-0.4,1.1-0.7,1.9-0.7c0.5,0,1,0.1,1.2,0.4c0.2,0.3,0.3,0.6,0.3,1.1v0.3h-0.7c-2.5,0-3.4,1-3.4,2.4
		c0,1.4,0.9,2,2.1,2c1.1,0,1.7-0.5,2-1.1h0l0.1,0.9h1.1c0-0.3-0.1-0.7-0.1-1.1v-3.7c0-1-0.3-1.4-0.6-1.7c-0.2-0.2-0.9-0.7-1.9-0.7
		c-0.7,0-1.4,0.2-2,0.6L302.2,145.6z"/>
	<path class="st1" d="M308.5,140.7h1.2v10.5h-1.2V140.7z"/>
	<path class="st1" d="M272.2,79.9h-22.8v-6.5l5.1-3.4c1.7-1.1,5.3-4.1,7-5.6c1.4-1.3,2.1-2.7,2.1-4.1c0-1.8-1.2-3-2.9-3
		c-2.2,0-3.4,1.6-3.7,4.9l-7.5-1.4c1.2-6.5,5.4-9.9,11.9-9.9c6.5,0,11.1,3.7,11.1,8.9c0,3.6-1.4,6-5.6,9c-0.9,0.7-1.4,1-5.9,4h11.6
		L272.2,79.9z"/>
</g>
</svg>
